<?xml version="1.0" encoding="UTF-8"?>
<svg version="1.1" xmlns="http://www.w3.org/2000/svg" width="512" height="512">
<path d="M0 0 C1.37674878 -0.00187025 2.75349702 -0.0041718 4.13024443 -0.00686532 C7.89906465 -0.01296324 11.66786262 -0.0128521 15.43668664 -0.01167095 C19.50700922 -0.01146643 23.57732476 -0.01699051 27.64764404 -0.02172852 C35.61658467 -0.03002445 43.58551789 -0.03278287 51.55446247 -0.03334089 C58.03348841 -0.03381653 64.51251192 -0.03587363 70.99153709 -0.03904152 C89.37128534 -0.04784497 107.75102775 -0.05246134 126.13077811 -0.05171105 C127.12102145 -0.05167109 128.11126479 -0.05163113 129.1315155 -0.05158997 C130.12297141 -0.05154909 131.11442732 -0.0515082 132.13592734 -0.05146609 C148.20378236 -0.05105963 164.27161395 -0.06062975 180.3394622 -0.07472833 C196.84812141 -0.08909912 213.3567692 -0.09599814 229.86543483 -0.09513456 C239.12966857 -0.09480284 248.39387775 -0.09753866 257.65810585 -0.10831261 C265.54553258 -0.11742681 273.43292359 -0.11958527 281.32035331 -0.11280318 C285.34195082 -0.10954272 289.36347984 -0.10946417 293.3850708 -0.11815643 C297.07202829 -0.12604325 300.75886321 -0.12456786 304.44581779 -0.1158723 C306.39976043 -0.11362146 308.35370694 -0.12114877 310.30763465 -0.12911195 C322.95882049 -0.0798243 334.16872361 0.94854188 343.68205261 9.88371277 C351.2845223 17.91847975 353.75671062 27.17826504 353.65910339 38.0065155 C353.65939545 38.8658519 353.6596875 39.72518829 353.6599884 40.61056519 C353.65860348 43.4295844 353.64308192 46.24833391 353.62736511 49.06730652 C353.623632 51.03028214 353.62078644 52.99325964 353.61878967 54.95623779 C353.61117668 60.10681866 353.5915483 65.2572856 353.56938171 70.40782166 C353.54887292 75.66995198 353.53977721 80.93210082 353.52970886 86.19425964 C353.50830015 96.50746057 353.47419248 106.82057717 353.43205261 117.13371277 C355.42345174 117.08768209 357.41485087 117.04165141 359.40625 116.99562073 C361.43205261 117.13371277 361.43205261 117.13371277 364.25627136 118.54777527 C366.82986443 121.60651604 367.53125035 124.12886837 368.54801941 127.93864441 C370.48443859 135.5789257 370.48443859 135.5789257 375.2474823 141.57267761 C379.74714605 143.92530999 384.51215829 144.99997506 389.43205261 146.13371277 C390.12943542 146.52429871 390.82681824 146.91488464 391.54533386 147.31730652 C394.44861416 148.57359137 396.41782818 147.9231525 399.43205261 147.13371277 C401.42196839 146.17589998 403.38101094 145.15173747 405.30705261 144.07121277 C413.72205261 139.80137944 413.72205261 139.80137944 419.43205261 141.13371277 C421.67754717 142.89739846 423.52409547 144.79868235 425.43205261 146.92277527 C427.32184504 149.01188174 429.26968255 150.7720533 431.43205261 152.57121277 C434.38980503 155.14750902 437.2133056 157.80487565 439.93205261 160.63371277 C440.60236511 161.32465027 441.27267761 162.01558777 441.96330261 162.72746277 C444.04631501 166.14005755 443.93756886 168.18074146 443.43205261 172.13371277 C441.99019688 175.71977605 440.0296265 179.00765441 438.10002136 182.34855652 C435.81768672 186.28690996 435.81768672 186.28690996 435.99455261 190.65324402 C436.70611511 191.88107605 436.70611511 191.88107605 437.43205261 193.13371277 C438.47866921 195.65264235 439.52011198 198.17332132 440.55705261 200.69621277 C440.97277527 201.68524597 440.97277527 201.68524597 441.39689636 202.69425964 C442.79535236 206.12151019 443.43205261 208.37139791 443.43205261 212.13371277 C444.71080261 212.40183777 445.98955261 212.66996277 447.30705261 212.94621277 C450.80440181 213.73629323 454.28450236 214.56786701 457.74455261 215.50871277 C458.54506042 215.72269714 459.34556824 215.93668152 460.17033386 216.15715027 C463.1233277 217.43219079 464.45459286 218.5649013 466.43205261 221.13371277 C466.84193096 224.04356769 467.01704926 226.56837731 466.99845886 229.47746277 C467.00465744 230.28356995 467.01085602 231.08967712 467.01724243 231.92021179 C467.02433385 233.62141209 467.02117832 235.32268189 467.00846863 237.02384949 C466.99459602 239.62557163 467.02868509 242.22370031 467.06681824 244.82511902 C467.06776943 246.48006781 467.06591062 248.13502111 467.06095886 249.78996277 C467.08084618 250.95416748 467.08084618 250.95416748 467.10113525 252.14189148 C467.03529834 255.96376526 466.80409901 257.73989306 464.13761902 260.56242371 C461.89480816 261.86496212 459.9837395 262.88068899 457.51408386 263.61808777 C456.81734558 263.83078308 456.1206073 264.04347839 455.40275574 264.26261902 C454.69054871 264.46757996 453.97834167 264.67254089 453.24455261 264.88371277 C452.52074402 265.10414246 451.79693542 265.32457214 451.05119324 265.55168152 C445.76956717 267.13371277 445.76956717 267.13371277 443.43205261 267.13371277 C443.12267761 268.95902527 443.12267761 268.95902527 442.80705261 270.82121277 C441.63353007 276.35603549 439.12394083 281.05193192 436.47892761 286.02043152 C435.15882397 289.94626214 435.70975686 291.42339564 437.43205261 295.13371277 C438.43820678 296.96616454 439.48034771 298.77930534 440.55705261 300.57121277 C444.67007939 308.08637281 444.67007939 308.08637281 443.43205261 313.13371277 C438.99236896 319.11741974 433.39122668 324.32885292 428.11955261 329.57121277 C427.40476746 330.28986511 426.6899823 331.00851746 425.95353699 331.74894714 C424.9277655 332.77278503 424.9277655 332.77278503 423.88127136 333.81730652 C423.26598572 334.43146423 422.65070007 335.04562195 422.01676941 335.6783905 C419.69063283 337.8145945 418.50978125 338.12525978 415.30705261 338.47355652 C411.08809509 338.10354714 409.0773566 337.04301598 405.53312683 334.93229675 C399.31602602 331.14352465 399.31602602 331.14352465 392.29826355 330.42570496 C388.85113666 331.59651973 385.87532359 333.30144129 382.79924011 335.22355652 C379.03279392 337.36020639 376.67661228 337.79349997 372.43205261 338.13371277 C372.2502948 338.82336121 372.06853699 339.51300964 371.88127136 340.22355652 C370.63547479 344.88091907 369.36544372 349.53017623 367.93205261 354.13371277 C367.60720886 355.18558777 367.60720886 355.18558777 367.27580261 356.25871277 C366.28597234 358.4583356 365.3218853 359.63610951 363.43205261 361.13371277 C358.08888269 362.95152425 352.15450978 362.31967113 346.58757019 362.3190155 C344.50492409 362.32120188 342.42280824 362.33937867 340.34025574 362.35832214 C338.36122253 362.36122253 338.36122253 362.36122253 336.34220886 362.36418152 C335.13701599 362.36829041 333.93182312 362.37239929 332.69010925 362.37663269 C329.4786769 362.13718906 327.28713627 361.59083253 324.43205261 360.13371277 C323.20939636 358.39152527 323.20939636 358.39152527 322.36955261 356.25871277 C322.0331073 355.46078308 321.69666199 354.66285339 321.35002136 353.84074402 C320.43205261 351.13371277 320.43205261 351.13371277 319.85783386 348.08293152 C318.70433711 342.26597631 318.70433711 342.26597631 314.80265808 338.06437683 C310.82138886 336.16757854 306.66593316 334.90409301 302.41398621 333.76530457 C300.43205261 333.13371277 300.43205261 333.13371277 296.92033386 331.24308777 C293.18279043 330.05444014 292.80323908 330.03089439 289.49455261 331.59074402 C288.12590221 332.35037141 286.77169533 333.1365245 285.43205261 333.94621277 C280.27480123 336.97436899 276.63741168 338.94703653 270.43205261 338.13371277 C268.52580261 337.12980652 268.52580261 337.12980652 266.93205261 335.57121277 C266.27978699 334.94086121 265.62752136 334.31050964 264.95549011 333.66105652 C263.70638855 332.41002136 263.70638855 332.41002136 262.43205261 331.13371277 C261.17586773 329.94579134 259.91789509 328.75975893 258.65861511 327.57511902 C257.28991025 326.26289779 255.92273865 324.94907554 254.55705261 323.63371277 C253.88996277 323.00521423 253.22287292 322.3767157 252.53556824 321.72917175 C251.90586121 321.10985779 251.27615417 320.49054382 250.62736511 319.85246277 C250.06033875 319.30525574 249.49331238 318.75804871 248.90910339 318.19425964 C247.43205261 316.13371277 247.43205261 316.13371277 245.43205261 309.13371277 C229.92205261 308.80371277 214.41205261 308.47371277 198.43205261 308.13371277 C201.96109543 317.7368587 201.96109543 317.7368587 205.49211121 327.33927917 C205.93377625 328.54245789 206.37544128 329.7456366 206.83049011 330.98527527 C207.28085632 332.21069031 207.73122253 333.43610535 208.19523621 334.69865417 C209.32253312 337.82954001 210.3950558 340.97193066 211.43205261 344.13371277 C212.76381531 344.14773132 212.76381531 344.14773132 214.1224823 344.16203308 C217.4255118 344.20611958 220.72725268 344.26776022 224.02970886 344.3412323 C225.45732198 344.36940887 226.88509015 344.39064004 228.31291199 344.40470886 C230.36905593 344.42618669 232.42334264 344.47285251 234.47892761 344.52433777 C236.33276062 344.55575867 236.33276062 344.55575867 238.2240448 344.58781433 C241.96343984 345.22413757 243.15509721 346.16129145 245.43205261 349.13371277 C246.16010212 351.87460505 246.00648502 354.36392483 245.43205261 357.13371277 C243.22464581 360.10229434 241.94607889 360.96237068 238.43205261 362.13371277 C236.18601158 362.23019534 233.93715144 362.26437989 231.68904114 362.26742554 C230.65530745 362.27082387 230.65530745 362.27082387 229.60069025 362.27429086 C227.28615999 362.28063253 224.97168826 362.27980139 222.65715027 362.27897644 C220.99981612 362.28196783 219.34248267 362.28537032 217.68515015 362.28915405 C213.17893372 362.29800043 208.67273628 362.30033244 204.16651201 362.30096984 C200.40652909 362.30191861 196.6465506 362.30559655 192.88656938 362.30914193 C184.01631151 362.31728898 175.14606379 362.31972595 166.27580261 362.3190155 C157.1218949 362.31841469 147.96804611 362.3289667 138.81415331 362.34475917 C130.95845055 362.35782964 123.10276706 362.3631996 115.2470535 362.36256009 C110.55372064 362.36230495 105.86044012 362.36516492 101.16711807 362.37573814 C96.75289736 362.38541079 92.33877913 362.38550403 87.92455482 362.37822151 C86.30441832 362.37717462 84.68427546 362.37954475 83.06414986 362.38558197 C80.85232281 362.39329023 78.64085068 362.38866498 76.42903137 362.38095093 C75.19127268 362.3814957 73.95351398 362.38204046 72.67824745 362.38260174 C68.53661014 362.06505831 65.63029397 361.29063546 62.61955261 358.38371277 C61.02094049 355.35476348 60.94834126 353.51969225 61.43205261 350.13371277 C63.02482605 347.48649597 63.02482605 347.48649597 65.43205261 345.13371277 C68.64006042 344.47428894 68.64006042 344.47428894 72.38517761 344.42668152 C73.59335144 344.39856384 74.80152527 344.37044617 76.04631042 344.34147644 C77.57610535 344.33478943 79.10590027 344.32810242 80.68205261 344.32121277 C87.98330261 344.22840027 87.98330261 344.22840027 95.43205261 344.13371277 C99.72205261 332.25371277 104.01205261 320.37371277 108.43205261 308.13371277 C102.78523376 308.15727844 102.78523376 308.15727844 97.02433777 308.18132019 C84.5712804 308.23108121 72.11822449 308.26434085 59.66509438 308.28914928 C52.11649618 308.30458834 44.56799248 308.32562086 37.01945496 308.36003113 C30.43666593 308.39002458 23.85394538 308.40930928 17.27108991 308.41597825 C13.78865348 308.41987376 10.30641286 308.42896611 6.82403946 308.45090294 C2.92722784 308.47524914 -0.9693959 308.4756764 -4.86628723 308.47428894 C-6.00852753 308.48507477 -7.15076782 308.4958606 -8.32762146 308.50697327 C-20.19662544 308.46139517 -28.67572166 305.78662511 -37.25544739 297.50480652 C-44.17492012 290.04907465 -46.16793854 282.33779674 -46.07588196 272.36199951 C-46.08212192 271.31189239 -46.08836188 270.26178527 -46.09479094 269.17985672 C-46.11067967 265.67929882 -46.09813223 262.17944121 -46.08552551 258.67887878 C-46.09094846 256.16178482 -46.09807209 253.64469404 -46.10676575 251.12760925 C-46.1230921 245.01127642 -46.12072951 238.89520068 -46.10911518 232.77886457 C-46.10006387 227.80536903 -46.09886419 222.83192847 -46.10321045 217.85842705 C-46.10382338 217.14926585 -46.10443631 216.44010465 -46.10506782 215.70945371 C-46.10634679 214.26857582 -46.10764364 212.82769794 -46.10895818 211.38682007 C-46.12035202 197.88988616 -46.10726954 184.39306109 -46.08575672 170.89614504 C-46.06789067 159.32936506 -46.07098805 147.7627457 -46.08943176 136.19596863 C-46.11086635 122.74729694 -46.11924943 109.29872057 -46.10698271 95.85003418 C-46.10570858 94.41429422 -46.1044511 92.97855424 -46.10321045 91.54281425 C-46.10259335 90.83649993 -46.10197625 90.1301856 -46.10134044 89.40246781 C-46.097895 84.43871454 -46.10369852 79.47502201 -46.11312866 74.51127815 C-46.12555727 67.82250457 -46.11663374 61.13407997 -46.09355164 54.44532013 C-46.08827236 51.99359324 -46.08976487 49.54184078 -46.09860229 47.09012413 C-46.10957182 43.73721133 -46.09577577 40.38526152 -46.07588196 37.03240967 C-46.08480484 36.06770345 -46.09372773 35.10299723 -46.10292101 34.10905749 C-45.99015073 24.27537499 -42.75118871 16.31160103 -35.97419739 9.18058777 C-25.14419518 -0.03194658 -13.48091431 -0.01645417 0 0 Z M-24.31794739 22.25871277 C-31.25421575 31.12172234 -29.97473337 42.22957992 -29.90852356 52.87223816 C-29.90760366 54.80570934 -29.90800655 56.73918152 -29.90961933 58.67265224 C-29.91029441 63.83322853 -29.89295329 68.99359457 -29.87178802 74.1541214 C-29.8546567 79.00307857 -29.85389614 83.85198556 -29.85176086 88.70097351 C-29.83604184 102.86608092 -29.79415817 117.03114953 -29.75544739 131.19621277 C-29.69357239 162.85558777 -29.63169739 194.51496277 -29.56794739 227.13371277 C53.59205261 227.13371277 136.75205261 227.13371277 222.43205261 227.13371277 C223.09205261 224.82371277 223.75205261 222.51371277 224.43205261 220.13371277 C226.17424011 218.71574402 226.17424011 218.71574402 228.30705261 217.94621277 C229.1049823 217.62910339 229.90291199 217.31199402 230.72502136 216.98527527 C233.43205261 216.13371277 233.43205261 216.13371277 236.48283386 215.53215027 C239.9192602 214.75328402 242.43738476 214.01497847 245.43205261 212.13371277 C247.60177929 208.45368615 248.9827803 204.91772598 250.24845886 200.86027527 C251.43205261 197.13371277 251.43205261 197.13371277 253.14689636 194.03215027 C254.73480694 190.45090513 254.51835837 188.86303923 253.43205261 185.13371277 C252.50163204 183.07991509 251.49841593 181.05782713 250.43205261 179.07121277 C246.62289433 171.95651088 246.62289433 171.95651088 246.43205261 168.13371277 C248.28540839 163.78012769 250.45773896 160.73907288 253.81095886 157.42668152 C254.64949402 156.59330261 255.48802917 155.75992371 256.35197449 154.90129089 C257.22402527 154.04986511 258.09607605 153.19843933 258.99455261 152.32121277 C259.87047058 151.45045105 260.74638855 150.57968933 261.64884949 149.68254089 C269.79083707 141.64083954 269.79083707 141.64083954 275.81486511 141.62980652 C280.02492084 142.44039934 283.65737436 144.58797999 287.33146667 146.73136902 C290.19466256 148.33153258 292.11487186 149.14449277 295.42033386 149.03215027 C298.91448623 147.98979613 302.16280598 146.67900316 305.49455261 145.19621277 C312.41807129 142.13663394 312.41807129 142.13663394 315.14299011 141.56730652 C319.1346853 139.0673882 319.71101427 134.48264267 320.99455261 130.13371277 C321.54453452 128.29618622 322.10779604 126.46256805 322.68595886 124.63371277 C323.04669495 123.41168152 323.04669495 123.41168152 323.41471863 122.16496277 C324.43205261 120.13371277 324.43205261 120.13371277 326.04118347 118.91496277 C329.45934517 117.79803053 332.86058329 117.5521823 336.43205261 117.13371277 C336.52488617 106.05894337 336.59588545 94.98426712 336.6393013 83.90918732 C336.66014272 78.76611551 336.68839744 73.62331065 336.73381042 68.48039246 C336.77739101 63.51369618 336.80121562 58.54725608 336.81156158 53.5803833 C336.81893105 51.6890154 336.83332189 49.79766092 336.85497284 47.90640259 C336.88416943 45.24944673 336.88800188 42.59353856 336.88615417 39.93644714 C336.90772583 38.77334518 336.90772583 38.77334518 336.92973328 37.58674622 C336.87940162 30.86249171 334.8453677 25.54702786 330.05705261 20.75871277 C325.33888674 17.83794342 320.97241657 16.88394136 315.4658823 16.87923717 C314.28783199 16.87340498 313.10978168 16.86757279 311.89603287 16.86156386 C309.96837276 16.86723285 309.96837276 16.86723285 308.00177002 16.87301636 C306.61564552 16.86999465 305.22952269 16.86610508 303.8434028 16.86142379 C300.03951561 16.85113754 296.2357226 16.8533272 292.43182766 16.85760438 C288.32745605 16.86007045 284.22310719 16.85105896 280.1187439 16.84356689 C272.08001069 16.83081479 264.04131088 16.82902682 256.00256927 16.83136716 C249.46911056 16.83314982 242.935662 16.8314018 236.40220451 16.82714272 C235.00767345 16.82624993 235.00767345 16.82624993 233.58497004 16.82533911 C231.69634736 16.82412737 229.80772468 16.82291324 227.91910201 16.82169674 C210.20609745 16.81081934 192.49311193 16.8129847 174.7801063 16.81908158 C158.57361089 16.82425157 142.36717557 16.8129935 126.16069204 16.79398336 C109.52103 16.77461467 92.8813964 16.76634722 76.241723 16.77010661 C66.89932906 16.77202005 57.55698627 16.7695172 48.21460152 16.75539207 C40.26185157 16.7434897 32.30918428 16.74206057 24.35643322 16.75418224 C20.29886168 16.76007882 16.2414414 16.76114889 12.18387985 16.74917984 C8.4686235 16.73834785 4.75364521 16.74139219 1.03840201 16.75544152 C-0.94046561 16.75935221 -2.91934545 16.7485195 -4.89818424 16.73714465 C-12.78538653 16.78528684 -17.95633102 17.3429183 -24.31794739 22.25871277 Z M336.43205261 134.13371277 C336.04533386 135.39828308 335.65861511 136.66285339 335.26017761 137.96574402 C334.7348581 139.62612892 334.20877649 141.28627284 333.68205261 142.94621277 C333.42939636 143.77959167 333.17674011 144.61297058 332.91642761 145.47160339 C330.96726893 151.53835978 330.96726893 151.53835978 328.69377136 154.06730652 C325.55943907 155.54515232 322.32478747 156.47147674 318.99455261 157.38371277 C312.12110891 159.36743485 306.42849047 162.04497335 300.29924011 165.77824402 C296.92670577 167.37261652 295.12367703 167.64435625 291.43205261 167.13371277 C288.32029206 165.71297577 285.42289547 164.1531061 282.46720886 162.44621277 C279.05083062 160.48362828 279.05083062 160.48362828 275.27189636 160.68058777 C273.11989261 162.38025952 271.0905238 164.09899662 269.11955261 166.00871277 C268.4015448 166.68675964 267.68353699 167.36480652 266.94377136 168.06340027 C265.23176971 169.95780378 265.23176971 169.95780378 265.50627136 171.99699402 C267.24170474 176.00240354 269.25875165 179.86541942 271.25236511 183.74699402 C272.83640129 188.2945416 272.53363987 191.52986695 270.65275574 195.97575378 C269.6894296 197.93257339 268.66648349 199.84539703 267.61955261 201.75871277 C264.35388866 207.93932168 262.09075775 213.75112094 260.41642761 220.55949402 C259.20740077 223.72119517 258.39546144 224.51730795 255.43205261 226.13371277 C252.71928222 227.1664399 249.96715248 228.00684169 247.18205261 228.82121277 C246.06443542 229.15862488 246.06443542 229.15862488 244.92424011 229.50285339 C243.09569121 230.05376236 241.26415356 230.59473423 239.43205261 231.13371277 C239.43205261 236.41371277 239.43205261 241.69371277 239.43205261 247.13371277 C243.7087015 248.96656229 247.88894691 250.73126439 252.24455261 252.32121277 C253.64640808 252.8374823 253.64640808 252.8374823 255.07658386 253.36418152 C257.33590772 254.23722848 257.33590772 254.23722848 259.43205261 254.13371277 C259.6524823 255.18945496 259.6524823 255.18945496 259.87736511 256.26652527 C262.09530102 266.03054195 265.40836859 275.61396252 270.86955261 284.07121277 C272.95826492 288.16508889 272.73482475 289.71876276 271.43205261 294.13371277 C269.90202508 297.25957548 268.30559204 300.32383439 266.61174011 303.36418152 C265.28853376 305.94896713 265.28853376 305.94896713 265.46720886 308.20011902 C266.84577428 310.96283109 268.77144669 312.7545409 270.99455261 314.88371277 C271.82084167 315.68293152 272.64713074 316.48215027 273.49845886 317.30558777 C274.1365448 317.90886902 274.77463074 318.51215027 275.43205261 319.13371277 C280.27369974 317.62773532 284.45092113 315.60722478 288.86955261 313.15715027 C292.7061977 311.62483165 295.58058778 311.42616054 299.49552917 312.92228699 C301.88068458 314.02094468 304.21911466 315.18794327 306.55705261 316.38371277 C313.02296776 319.59363116 319.19642908 322.30909225 326.18205261 324.18449402 C329.06403447 325.40033011 329.88437825 326.41410002 331.43205261 329.13371277 C332.38414875 331.69556683 333.25364598 334.21510051 334.05705261 336.82121277 C335.15003396 341.32591694 335.15003396 341.32591694 337.43205261 345.13371277 C339.96254663 345.20684843 342.46510098 345.22618804 344.99455261 345.19621277 C345.70547058 345.19170105 346.41638855 345.18718933 347.14884949 345.18254089 C348.90995274 345.17072141 350.67101297 345.1527854 352.43205261 345.13371277 C352.60744568 344.57385681 352.78283875 344.01400085 352.96354675 343.43717957 C353.77940733 340.88863939 354.63628063 338.35576861 355.49455261 335.82121277 C355.76976746 334.94013855 356.0449823 334.05906433 356.32853699 333.15129089 C358.58275275 326.63635963 358.58275275 326.63635963 362.68595886 324.20793152 C363.9221698 323.85343933 365.15838074 323.49894714 366.43205261 323.13371277 C367.72483529 322.66733644 369.01389192 322.19051676 370.29924011 321.70402527 C371.63516399 321.22221666 372.9711018 320.74044669 374.30705261 320.25871277 C379.67099195 318.30673393 384.57746864 316.21988127 389.34220886 313.01652527 C392.54233922 311.6646945 394.98676761 311.79936022 398.43205261 312.13371277 C401.59000341 313.53648614 404.46916556 315.08939666 407.44572449 316.82121277 C410.83465867 318.77996998 410.83465867 318.77996998 414.59220886 318.60246277 C416.77770539 316.85777764 418.73661265 315.01900073 420.68205261 313.00871277 C421.38845886 312.28425964 422.09486511 311.55980652 422.82267761 310.81340027 C423.35377136 310.25910339 423.88486511 309.70480652 424.43205261 309.13371277 C423.03168651 304.29608443 420.91164121 300.15957112 418.45549011 295.79386902 C416.55734259 290.86013443 416.93050501 287.29859752 419.00627136 282.47746277 C419.69889998 281.1897964 420.40390676 279.90873045 421.11955261 278.63371277 C424.08941145 273.13315851 426.20983028 267.90169341 427.86955261 261.88371277 C429.83144417 255.65143724 429.83144417 255.65143724 432.38517761 253.45011902 C434.71744846 252.40222809 436.95461222 251.75889757 439.43205261 251.13371277 C441.29460094 250.40477672 443.14907291 249.65484097 444.99455261 248.88371277 C446.45892761 248.30621277 447.92330261 247.72871277 449.43205261 247.13371277 C449.43205261 241.85371277 449.43205261 236.57371277 449.43205261 231.13371277 C446.64170215 230.12990361 443.84990406 229.13051827 441.05705261 228.13371277 C440.26299011 227.84754089 439.46892761 227.56136902 438.65080261 227.26652527 C437.89025574 226.99582214 437.12970886 226.72511902 436.34611511 226.44621277 C435.64438171 226.19484558 434.94264832 225.94347839 434.21965027 225.68449402 C432.4252515 225.03556187 432.4252515 225.03556187 430.43205261 225.13371277 C430.27349792 224.56265808 430.11494324 223.99160339 429.95158386 223.40324402 C427.13282648 213.60767278 423.98478107 203.89386002 418.35002136 195.32902527 C416.98856875 192.07312582 417.08721489 189.63770899 417.43205261 186.13371277 C418.83482599 182.97576197 420.38773651 180.09659983 422.11955261 177.12004089 C424.08424765 173.73150266 424.08424765 173.73150266 423.88127136 169.97746277 C422.19569271 167.83300691 420.5061544 165.79438902 418.61955261 163.82121277 C417.61988464 162.74420105 417.61988464 162.74420105 416.60002136 161.64543152 C414.54482066 159.89168835 414.54482066 159.89168835 412.03752136 160.20793152 C407.95607314 161.65816125 404.32462147 163.82382388 400.56486511 165.95402527 C396.10640927 167.63289517 392.88029558 167.11007353 388.47795105 165.35441589 C386.37335277 164.39086488 384.30893057 163.36803603 382.24455261 162.32121277 C376.19178764 159.34371749 370.25895475 156.87816254 363.75236511 155.02043152 C360.60474484 153.81755306 358.97700274 152.29600437 357.54069519 149.23258972 C357.30503845 148.53609314 357.06938171 147.83959656 356.82658386 147.12199402 C356.56554871 146.3646698 356.30451355 145.60734558 356.03556824 144.82707214 C355.6440155 143.64854675 355.6440155 143.64854675 355.24455261 142.44621277 C354.97191589 141.64892761 354.69927917 140.85164246 354.41838074 140.03019714 C353.74843069 138.06736105 353.08919116 136.10087507 352.43205261 134.13371277 C347.15205261 134.13371277 341.87205261 134.13371277 336.43205261 134.13371277 Z M-29.56794739 244.13371277 C-31.35957839 265.18136104 -31.35957839 265.18136104 -25.38044739 285.44621277 C-19.04770608 291.4974989 -12.83109367 291.5653502 -4.47592163 291.49447632 C-2.81311146 291.49832123 -2.81311146 291.49832123 -1.11670917 291.50224382 C2.59297132 291.50718008 6.30224367 291.49069078 10.0118866 291.47428894 C12.67299312 291.47344263 15.33407474 291.47378582 17.99517822 291.47561646 C23.72184908 291.47718736 29.44841717 291.46779734 35.17506218 291.45090294 C43.45475028 291.42649265 51.73438884 291.4187056 60.01410902 291.41493896 C73.4482922 291.40837766 86.88242063 291.38842522 100.3165741 291.36003113 C113.36442288 291.33248224 126.41225678 291.31125272 139.46012878 291.29850769 C140.26477853 291.29771952 141.06942827 291.29693135 141.89846133 291.2961193 C145.93526604 291.2922041 149.97207085 291.288413 154.00887573 291.28468359 C187.48330771 291.25359768 220.95767345 291.20077063 254.43205261 291.13371277 C253.64559603 286.80889346 252.27128192 283.16502035 250.49455261 279.13371277 C247.43974365 272.16844811 247.43974365 272.16844811 246.83439636 269.43449402 C244.42818273 265.48669504 240.16862701 264.72616753 235.93205261 263.32121277 C235.05162292 263.00990417 234.17119324 262.69859558 233.26408386 262.37785339 C228.94518414 260.74178077 228.94518414 260.74178077 224.43205261 260.13371277 C223.44205261 252.21371277 223.44205261 252.21371277 222.43205261 244.13371277 C139.27205261 244.13371277 56.11205261 244.13371277 -29.56794739 244.13371277 Z M127.43205261 308.13371277 C124.17135154 315.95939535 121.0099765 323.73794889 118.11955261 331.69621277 C117.76054871 332.6662323 117.4015448 333.63625183 117.03166199 334.63566589 C116.69328308 335.56443542 116.35490417 336.49320496 116.00627136 337.45011902 C115.70293884 338.2797113 115.39960632 339.10930359 115.08708191 339.96403503 C114.2875438 342.23464147 114.2875438 342.23464147 114.43205261 345.13371277 C140.50205261 345.13371277 166.57205261 345.13371277 193.43205261 345.13371277 C187.49205261 328.30371277 187.49205261 328.30371277 181.43205261 311.13371277 C180.93705261 309.64871277 180.93705261 309.64871277 180.43205261 308.13371277 C162.94205261 308.13371277 145.45205261 308.13371277 127.43205261 308.13371277 Z " fill="#004261" transform="translate(45.56794738769531,74.86628723144531)"/>
<path d="M0 0 C9.84558777 9.57075199 15.44944746 21.30600424 16.03320312 35.06152344 C16.22370805 49.29224119 11.98565354 61.60640175 2.30859375 72.22265625 C-8.60787418 82.71858609 -20.99883057 87.17751116 -35.85571289 87.11572266 C-49.13509304 86.8021158 -60.59422317 81.5656466 -70.1875 72.5 C-80.65256813 61.46175676 -84.67996092 48.84723338 -84.4375 33.75 C-82.85440763 19.64049716 -77.18776212 6.93613432 -66.12109375 -2.15234375 C-45.46780908 -17.44029938 -19.55573486 -16.42917695 0 0 Z M-57.48046875 13.60546875 C-64.57703054 21.18623092 -67.54273486 29.3918833 -67.4375 39.75 C-66.76175417 48.39092005 -62.4549744 56.31764911 -56.0625 62.125 C-47.20357598 69.07433373 -38.54799261 70.58358465 -27.4375 69.75 C-18.30668723 67.6821761 -10.5188876 61.55355952 -5.4375 53.75 C-0.99504983 45.55923249 0.15058332 37.07556782 -2.1328125 27.98046875 C-5.58712754 18.53190114 -11.30358506 11.19240408 -20.4375 6.75 C-34.3220003 2.17364107 -46.37182133 3.51635302 -57.48046875 13.60546875 Z " fill="#004361" transform="translate(424.4375,277.25)"/>
<path d="M0 0 C1.02440186 0.57596924 2.04880371 1.15193848 3.10424805 1.74536133 C3.67185852 2.06121185 4.23946899 2.37706238 4.82427979 2.70248413 C6.67634804 3.73573434 8.52108332 4.78137675 10.3659668 5.82739258 C11.65775697 6.5514151 12.94999946 7.27463113 14.24267578 7.99707031 C16.88871834 9.4777003 19.53183719 10.96335668 22.17260742 12.45336914 C25.80855108 14.50415348 29.4531449 16.53887221 33.1003418 18.56958008 C39.09396661 21.91019548 45.08608558 25.2525592 51.0534668 28.63989258 C52.13354004 29.25074707 53.21361328 29.86160156 54.32641602 30.4909668 C55.40036621 31.10601074 56.47431641 31.72105469 57.58081055 32.35473633 C59.04442017 33.18992798 59.04442017 33.18992798 60.53759766 34.04199219 C62.73328059 35.43653317 64.39764801 36.6493689 66.0534668 38.63989258 C66.5222168 40.76098633 66.5222168 40.76098633 66.5534668 43.07739258 C66.5844043 43.83922852 66.6153418 44.60106445 66.6472168 45.38598633 C65.56430101 49.49679164 62.22987397 50.93838241 58.73413086 53.02294922 C55.81561482 54.69767705 52.87577747 56.32888362 49.9284668 57.95239258 C48.29228394 58.86130249 48.29228394 58.86130249 46.62304688 59.78857422 C43.70319342 61.40974597 40.78123369 63.0269832 37.85809326 64.64221191 C33.64802646 66.96973084 29.44178851 69.30416157 25.2355957 71.63867188 C22.97191952 72.89449502 20.70732807 74.14867034 18.44165039 75.40087891 C12.11886423 78.90304993 5.8828139 82.50456587 -0.27929688 86.28369141 C-4.18107871 88.267618 -7.71674238 88.90972407 -11.9465332 87.63989258 C-15.01515676 85.09518036 -15.79476984 83.55047277 -16.4465332 79.63989258 C-15.78749675 75.68567389 -14.78938838 74.52461602 -11.9465332 71.63989258 C-8.41823831 69.39307562 -4.72390553 67.4953562 -1.0090332 65.57739258 C1.15480774 64.43360107 3.31754676 63.28772279 5.47924805 62.13989258 C6.57317871 61.56110352 7.66710937 60.98231445 8.79418945 60.38598633 C13.80467024 57.70171977 18.74636075 54.90248527 23.6784668 52.07739258 C24.53561279 51.58940186 25.39275879 51.10141113 26.27587891 50.59863281 C30.64835685 48.09126745 34.90010013 45.49617224 39.0534668 42.63989258 C38.44688232 42.3141626 37.84029785 41.98843262 37.21533203 41.65283203 C25.59154003 35.40325878 13.99648115 29.10511058 2.4909668 22.63989258 C1.54729248 22.11306885 0.60361816 21.58624512 -0.36865234 21.04345703 C-14.1305207 13.27191759 -14.1305207 13.27191759 -15.9465332 9.63989258 C-16.37230191 5.80797419 -16.24974636 4.11039575 -14.1340332 0.82739258 C-9.68956407 -3.61707655 -5.32593871 -2.45843107 0 0 Z " fill="#004261" transform="translate(247.946533203125,154.360107421875)"/>
<path d="M0 0 C2.375 1.5625 2.375 1.5625 4 4 C4.87078652 9.48595506 4.87078652 9.48595506 4 12 C-1.22475561 17.36058115 -8.04182828 20.52608823 -14.5625 24.0625 C-16.97807971 25.38526154 -19.39122211 26.71244821 -21.8046875 28.0390625 C-22.40852768 28.37012497 -23.01236786 28.70118744 -23.63450623 29.0422821 C-29.52323859 32.27477948 -35.36115143 35.59396174 -41.1875 38.9375 C-42.083479 39.45127197 -42.97945801 39.96504395 -43.90258789 40.49438477 C-45.93588248 41.66150031 -47.96842948 42.82988684 -50 44 C-45.23088964 48.2768151 -39.68831203 50.97269572 -34.0625 53.9375 C-25.50804342 58.5090646 -17.04487109 63.20160862 -8.6875 68.125 C-7.75752197 68.66890381 -6.82754395 69.21280762 -5.86938477 69.77319336 C-5.00885498 70.28374268 -4.1483252 70.79429199 -3.26171875 71.3203125 C-2.50850342 71.76648926 -1.75528809 72.21266602 -0.97924805 72.67236328 C0.99060811 73.99370013 2.51870118 75.14558022 4 77 C4.75 83.75 4.75 83.75 2.5 87.5 C-1.05323962 89.63194377 -4.01735925 89.71155456 -8 89 C-12.2564429 87.25841868 -16.19450891 85.02252981 -20.1875 82.75 C-21.33371826 82.11465332 -22.47993652 81.47930664 -23.66088867 80.82470703 C-27.12004132 78.9053074 -30.56058845 76.95455546 -34 75 C-34.96325195 74.45633789 -35.92650391 73.91267578 -36.91894531 73.35253906 C-41.24246979 70.91151355 -45.55377936 68.45090624 -49.8515625 65.96484375 C-53.51804658 63.84464713 -57.20220051 61.75929447 -60.8984375 59.69140625 C-61.86676514 59.14693848 -62.83509277 58.6024707 -63.83276367 58.04150391 C-65.69450106 56.99544091 -67.55912684 55.95449709 -69.42700195 54.91943359 C-70.2593335 54.44973145 -71.09166504 53.9800293 -71.94921875 53.49609375 C-72.68487061 53.08544678 -73.42052246 52.6747998 -74.1784668 52.25170898 C-76 51 -76 51 -78 48 C-78.4375 44.625 -78.4375 44.625 -78 41 C-74.85136797 37.35800465 -71.62615532 34.97020083 -67.4140625 32.6875 C-66.32955811 32.09332275 -65.24505371 31.49914551 -64.12768555 30.88696289 C-62.97179932 30.26426514 -61.81591309 29.64156738 -60.625 29 C-59.41586695 28.34012833 -58.2072963 27.67922518 -56.99926758 27.01733398 C-55.14929361 26.00381796 -53.29903299 24.99088066 -51.44703674 23.98106384 C-45.4935747 20.73411824 -39.58613683 17.40793632 -33.6875 14.0625 C-32.74696777 13.53043945 -31.80643555 12.99837891 -30.83740234 12.45019531 C-26.73931453 10.12986338 -22.64649336 7.80107157 -18.56640625 5.44921875 C-17.9113208 5.0720874 -17.25623535 4.69495605 -16.58129883 4.30639648 C-14.90147685 3.33738039 -13.22405463 2.36420732 -11.546875 1.390625 C-7.24030602 -0.9608145 -4.73280021 -1.25564087 0 0 Z " fill="#004261" transform="translate(162,153)"/>
<path d="M0 0 C2.375 1.5 2.375 1.5 4 4 C4.7223499 10.14422261 3.59776325 16.01232339 2.16748047 21.96264648 C1.87469963 23.23333481 1.87469963 23.23333481 1.57600403 24.5296936 C0.93239716 27.3124232 0.27488286 30.09166343 -0.3828125 32.87109375 C-0.84013406 34.83598441 -1.29656897 36.80108162 -1.75216675 38.76637268 C-2.95441899 43.94185402 -4.16844862 49.11450166 -5.3850708 54.28662109 C-6.59956172 59.45835078 -7.80341022 64.63255389 -9.0078125 69.80664062 C-10.40262685 75.7978863 -11.79956694 81.78858621 -13.20880127 87.77645874 C-15.14737993 96.01805327 -17.07705401 104.25881817 -18.87792969 112.53173828 C-19.14693085 113.75264664 -19.41593201 114.97355499 -19.69308472 116.23146057 C-20.1634306 118.38089079 -20.62312653 120.53269774 -21.06887817 122.68736267 C-22.1714 127.69816147 -23.16089932 131.32911466 -27 135 C-30.0901109 135.92485714 -32.86623293 135.70725385 -36 135 C-38.5625 132.9375 -38.5625 132.9375 -40 130 C-40.43803898 124.01810123 -39.22585894 118.68512106 -37.86035156 112.91235352 C-37.63269104 111.92266068 -37.40503052 110.93296783 -37.17047119 109.9132843 C-36.41786553 106.65007662 -35.65436235 103.38952496 -34.890625 100.12890625 C-34.36149178 97.84568114 -33.83299849 95.56230765 -33.30511475 93.27879333 C-31.91284095 87.26475442 -30.51112962 81.25295202 -29.10766602 75.24151611 C-27.97257345 70.37246014 -26.84417184 65.5018659 -25.71615982 60.6311655 C-24.35994067 54.77571322 -23.0007087 48.92096196 -21.640625 43.06640625 C-21.38553413 41.9680652 -21.13044327 40.86972416 -20.86762238 39.73810005 C-19.46494306 33.70498705 -18.05171364 27.67453823 -16.62336731 21.64744949 C-16.02804626 19.11911285 -15.44619561 16.58798435 -14.86608887 14.05612183 C-14.52299394 12.59838635 -14.17932836 11.140785 -13.83496094 9.68334961 C-13.54941345 8.45031601 -13.26386597 7.21728241 -12.96966553 5.94688416 C-12.01489811 3.04527645 -11.4364382 1.77338833 -9 0 C-5.41563853 -1.19478716 -3.63093708 -0.96330984 0 0 Z " fill="#004361" transform="translate(217,130)"/>
</svg>
